<svg width="418" height="50" viewBox="0 0 418 50" fill="none" xmlns="http://www.w3.org/2000/svg">
<path d="M98.7702 40H93.0046L103.502 10.1818H110.17L120.683 40H114.917L106.953 16.2969H106.72L98.7702 40ZM98.9595 28.3086H114.684V32.6474H98.9595V28.3086ZM124.377 40V17.6364H129.415V21.4364H129.677C130.143 20.1552 130.914 19.1554 131.992 18.4371C133.069 17.7092 134.355 17.3452 135.85 17.3452C137.364 17.3452 138.641 17.714 139.679 18.4517C140.728 19.1797 141.465 20.1746 141.892 21.4364H142.125C142.62 20.194 143.455 19.204 144.63 18.4663C145.814 17.7189 147.216 17.3452 148.837 17.3452C150.895 17.3452 152.574 17.9955 153.875 19.2962C155.176 20.5968 155.826 22.4944 155.826 24.989V40H150.541V25.8043C150.541 24.4163 150.172 23.402 149.434 22.7614C148.697 22.111 147.794 21.7859 146.726 21.7859C145.455 21.7859 144.46 22.1838 143.741 22.9798C143.033 23.766 142.679 24.79 142.679 26.0518V40H137.51V25.5859C137.51 24.4309 137.16 23.5088 136.462 22.8196C135.772 22.1304 134.87 21.7859 133.753 21.7859C132.996 21.7859 132.307 21.98 131.686 22.3683C131.065 22.7468 130.57 23.2855 130.201 23.9844C129.832 24.6735 129.648 25.4792 129.648 26.4013V40H124.377ZM178.848 23.5476L174.044 24.0717C173.908 23.5864 173.67 23.1302 173.33 22.7031C173 22.276 172.554 21.9315 171.991 21.6694C171.428 21.4073 170.739 21.2763 169.923 21.2763C168.826 21.2763 167.904 21.5141 167.157 21.9897C166.419 22.4653 166.055 23.0817 166.065 23.8388C166.055 24.4891 166.293 25.0181 166.778 25.4258C167.273 25.8335 168.089 26.1683 169.224 26.4304L173.039 27.2457C175.155 27.7019 176.728 28.4251 177.756 29.4151C178.795 30.4052 179.319 31.701 179.329 33.3026C179.319 34.71 178.907 35.9524 178.091 37.0298C177.286 38.0975 176.165 38.9323 174.728 39.5341C173.291 40.1359 171.641 40.4368 169.778 40.4368C167.04 40.4368 164.837 39.8641 163.168 38.7188C161.498 37.5637 160.503 35.9573 160.183 33.8995L165.322 33.4045C165.555 34.4139 166.05 35.1759 166.808 35.6903C167.565 36.2048 168.55 36.462 169.763 36.462C171.015 36.462 172.02 36.2048 172.777 35.6903C173.544 35.1759 173.927 34.5401 173.927 33.783C173.927 33.1424 173.68 32.6134 173.185 32.196C172.699 31.7786 171.942 31.4583 170.913 31.2351L167.099 30.4343C164.954 29.9878 163.367 29.2356 162.338 28.1776C161.309 27.1098 160.799 25.7607 160.809 24.13C160.799 22.7517 161.173 21.5578 161.93 20.5483C162.697 19.5291 163.76 18.7429 165.119 18.1896C166.487 17.6267 168.065 17.3452 169.85 17.3452C172.471 17.3452 174.534 17.9033 176.038 19.0195C177.553 20.1358 178.489 21.6451 178.848 23.5476ZM204.182 40H194.078V10.1818H204.386C207.346 10.1818 209.89 10.7788 212.015 11.9727C214.151 13.1568 215.791 14.8603 216.936 17.0831C218.082 19.3059 218.654 21.9654 218.654 25.0618C218.654 28.1678 218.077 30.8371 216.922 33.0696C215.777 35.3021 214.122 37.0153 211.957 38.2092C209.802 39.4031 207.211 40 204.182 40ZM199.479 35.3263H203.92C205.997 35.3263 207.73 34.9478 209.118 34.1907C210.506 33.4239 211.549 32.2834 212.248 30.7692C212.947 29.2453 213.297 27.3428 213.297 25.0618C213.297 22.7808 212.947 20.888 212.248 19.3835C211.549 17.8693 210.516 16.7385 209.147 15.9911C207.788 15.234 206.099 14.8555 204.08 14.8555H199.479V35.3263ZM229.989 40.4513C228.572 40.4513 227.296 40.199 226.16 39.6942C225.034 39.1798 224.141 38.4227 223.481 37.4229C222.831 36.4232 222.506 35.1905 222.506 33.7248C222.506 32.4629 222.738 31.4195 223.204 30.5945C223.67 29.7694 224.306 29.1094 225.112 28.6143C225.917 28.1193 226.825 27.7456 227.834 27.4933C228.854 27.2312 229.907 27.0419 230.994 26.9254C232.304 26.7895 233.367 26.6682 234.182 26.5614C234.998 26.445 235.59 26.2702 235.959 26.0373C236.337 25.7946 236.526 25.4209 236.526 24.9162V24.8288C236.526 23.732 236.201 22.8827 235.551 22.2809C234.901 21.6791 233.964 21.3782 232.741 21.3782C231.45 21.3782 230.426 21.6597 229.669 22.2227C228.921 22.7856 228.417 23.4505 228.155 24.2173L223.233 23.5185C223.622 22.1596 224.262 21.0239 225.155 20.1115C226.048 19.1894 227.14 18.5002 228.431 18.044C229.722 17.5781 231.149 17.3452 232.712 17.3452C233.789 17.3452 234.862 17.4714 235.93 17.7237C236.997 17.9761 237.973 18.3935 238.856 18.9759C239.739 19.5485 240.448 20.3299 240.982 21.32C241.525 22.31 241.797 23.5476 241.797 25.0327V40H236.73V36.9279H236.556C236.235 37.5491 235.784 38.1315 235.202 38.6751C234.629 39.2089 233.906 39.6409 233.032 39.9709C232.168 40.2912 231.154 40.4513 229.989 40.4513ZM231.358 36.5785C232.416 36.5785 233.333 36.3698 234.11 35.9524C234.886 35.5253 235.483 34.9624 235.9 34.2635C236.327 33.5646 236.541 32.8027 236.541 31.9776V29.3423C236.376 29.4782 236.095 29.6044 235.697 29.7209C235.308 29.8374 234.872 29.9393 234.386 30.0266C233.901 30.114 233.42 30.1916 232.945 30.2596C232.469 30.3275 232.057 30.3858 231.707 30.4343C230.921 30.5411 230.217 30.7158 229.596 30.9585C228.975 31.2011 228.485 31.5408 228.126 31.9776C227.766 32.4047 227.587 32.958 227.587 33.6374C227.587 34.6081 227.941 35.3409 228.65 35.8359C229.358 36.331 230.261 36.5785 231.358 36.5785ZM258.264 17.6364V21.7131H245.408V17.6364H258.264ZM248.582 12.2784H253.852V33.2734C253.852 33.982 253.959 34.5256 254.173 34.9041C254.396 35.273 254.687 35.5253 255.046 35.6612C255.405 35.7971 255.803 35.8651 256.24 35.8651C256.57 35.8651 256.871 35.8408 257.143 35.7923C257.424 35.7437 257.638 35.7 257.784 35.6612L258.672 39.7816C258.39 39.8787 257.987 39.9854 257.463 40.1019C256.949 40.2184 256.318 40.2863 255.57 40.3058C254.25 40.3446 253.061 40.1456 252.003 39.7088C250.945 39.2623 250.106 38.5732 249.485 37.6413C248.873 36.7095 248.572 35.5447 248.582 34.147V12.2784ZM272.332 40.4368C270.09 40.4368 268.154 39.9709 266.523 39.0391C264.902 38.0975 263.655 36.7678 262.781 35.0497C261.908 33.322 261.471 31.2885 261.471 28.9492C261.471 26.6488 261.908 24.6299 262.781 22.8924C263.664 21.1452 264.897 19.7863 266.479 18.8157C268.061 17.8353 269.92 17.3452 272.056 17.3452C273.434 17.3452 274.735 17.5684 275.958 18.0149C277.19 18.4517 278.277 19.1312 279.219 20.0533C280.17 20.9754 280.918 22.1499 281.461 23.5767C282.005 24.9938 282.277 26.6828 282.277 28.6435V30.2596H263.946V26.707H277.224C277.215 25.6976 276.996 24.7997 276.569 24.0135C276.142 23.2176 275.545 22.5915 274.778 22.1353C274.021 21.6791 273.138 21.451 272.128 21.451C271.051 21.451 270.105 21.7131 269.289 22.2372C268.474 22.7517 267.838 23.4311 267.382 24.2756C266.936 25.1103 266.707 26.0276 266.698 27.0273V30.1286C266.698 31.4292 266.936 32.5455 267.411 33.4773C267.887 34.3994 268.552 35.108 269.406 35.603C270.26 36.0883 271.26 36.331 272.405 36.331C273.172 36.331 273.866 36.2242 274.487 36.0107C275.108 35.7874 275.647 35.4622 276.103 35.0352C276.559 34.6081 276.904 34.0791 277.137 33.4482L282.058 34.0014C281.748 35.3021 281.155 36.4377 280.282 37.4084C279.418 38.3693 278.311 39.1167 276.962 39.6506C275.613 40.1747 274.07 40.4368 272.332 40.4368ZM297.138 40V10.1818H308.32C310.611 10.1818 312.533 10.6089 314.086 11.4631C315.648 12.3172 316.828 13.4917 317.624 14.9865C318.429 16.4716 318.832 18.1605 318.832 20.0533C318.832 21.9654 318.429 23.6641 317.624 25.1491C316.818 26.6342 315.629 27.8039 314.057 28.658C312.484 29.5025 310.548 29.9247 308.247 29.9247H300.836V25.484H307.519C308.859 25.484 309.956 25.2511 310.81 24.7852C311.664 24.3192 312.295 23.6786 312.703 22.8633C313.12 22.0479 313.329 21.1113 313.329 20.0533C313.329 18.9953 313.12 18.0634 312.703 17.2578C312.295 16.4522 311.659 15.8261 310.795 15.3796C309.941 14.9234 308.839 14.6953 307.49 14.6953H302.54V40H297.138ZM323.291 40V17.6364H328.562V40H323.291ZM325.941 14.4624C325.106 14.4624 324.388 14.1857 323.786 13.6325C323.184 13.0695 322.883 12.3949 322.883 11.6087C322.883 10.8127 323.184 10.1381 323.786 9.58487C324.388 9.0219 325.106 8.74041 325.941 8.74041C326.785 8.74041 327.504 9.0219 328.096 9.58487C328.698 10.1381 328.998 10.8127 328.998 11.6087C328.998 12.3949 328.698 13.0695 328.096 13.6325C327.504 14.1857 326.785 14.4624 325.941 14.4624ZM343.737 40.4368C341.504 40.4368 339.587 39.9466 337.985 38.9663C336.394 37.9859 335.166 36.6319 334.302 34.9041C333.448 33.1667 333.021 31.1671 333.021 28.9055C333.021 26.6342 333.457 24.6299 334.331 22.8924C335.205 21.1452 336.437 19.7863 338.029 18.8157C339.631 17.8353 341.523 17.3452 343.707 17.3452C345.522 17.3452 347.129 17.68 348.527 18.3498C349.934 19.0098 351.055 19.9465 351.89 21.1598C352.725 22.3634 353.2 23.7708 353.317 25.3821H348.279C348.075 24.3047 347.59 23.4068 346.823 22.6886C346.066 21.9606 345.052 21.5966 343.78 21.5966C342.703 21.5966 341.756 21.8878 340.941 22.4702C340.126 23.0428 339.49 23.8679 339.034 24.9453C338.587 26.0227 338.364 27.3137 338.364 28.8182C338.364 30.3421 338.587 31.6525 339.034 32.7493C339.48 33.8364 340.106 34.676 340.912 35.2681C341.727 35.8505 342.683 36.1417 343.78 36.1417C344.557 36.1417 345.251 35.9961 345.862 35.7049C346.483 35.404 347.003 34.9721 347.42 34.4091C347.837 33.8461 348.124 33.1618 348.279 32.3562H353.317C353.191 33.9383 352.725 35.3409 351.919 36.5639C351.113 37.7772 350.017 38.7285 348.629 39.4176C347.241 40.0971 345.61 40.4368 343.737 40.4368ZM362.449 32.9822L362.435 26.6197H363.279L371.316 17.6364H377.475L367.589 28.6435H366.497L362.449 32.9822ZM357.645 40V10.1818H362.915V40H357.645ZM371.68 40L364.4 29.8228L367.953 26.1101L377.984 40H371.68ZM389.967 40.4368C387.725 40.4368 385.788 39.9709 384.158 39.0391C382.537 38.0975 381.29 36.7678 380.416 35.0497C379.542 33.322 379.106 31.2885 379.106 28.9492C379.106 26.6488 379.542 24.6299 380.416 22.8924C381.299 21.1452 382.532 19.7863 384.114 18.8157C385.696 17.8353 387.555 17.3452 389.69 17.3452C391.069 17.3452 392.369 17.5684 393.592 18.0149C394.825 18.4517 395.912 19.1312 396.854 20.0533C397.805 20.9754 398.552 22.1499 399.096 23.5767C399.64 24.9938 399.911 26.6828 399.911 28.6435V30.2596H381.581V26.707H394.859C394.849 25.6976 394.631 24.7997 394.204 24.0135C393.777 23.2176 393.18 22.5915 392.413 22.1353C391.656 21.6791 390.773 21.451 389.763 21.451C388.686 21.451 387.739 21.7131 386.924 22.2372C386.109 22.7517 385.473 23.4311 385.017 24.2756C384.57 25.1103 384.342 26.0276 384.332 27.0273V30.1286C384.332 31.4292 384.57 32.5455 385.046 33.4773C385.522 34.3994 386.186 35.108 387.041 35.603C387.895 36.0883 388.895 36.331 390.04 36.331C390.807 36.331 391.501 36.2242 392.122 36.0107C392.743 35.7874 393.282 35.4622 393.738 35.0352C394.194 34.6081 394.539 34.0791 394.772 33.4482L399.693 34.0014C399.382 35.3021 398.79 36.4377 397.917 37.4084C397.053 38.3693 395.946 39.1167 394.597 39.6506C393.248 40.1747 391.705 40.4368 389.967 40.4368ZM404.37 40V17.6364H409.481V21.3636H409.714C410.121 20.0727 410.82 19.0778 411.81 18.3789C412.81 17.6703 413.95 17.3161 415.232 17.3161C415.523 17.3161 415.848 17.3306 416.207 17.3597C416.576 17.3791 416.882 17.4131 417.124 17.4616V22.31C416.901 22.2324 416.547 22.1644 416.062 22.1062C415.586 22.0382 415.125 22.0043 414.678 22.0043C413.718 22.0043 412.854 22.2129 412.087 22.6303C411.33 23.038 410.733 23.6058 410.296 24.3338C409.859 25.0618 409.641 25.9014 409.641 26.8526V40H404.37Z" fill="#0688FF"/>
<g clip-path="url(#clip0_57_717)">
<rect x="2.71356" y="8.71362" width="66.5729" height="33.2864" rx="10.8543" stroke="#0688FF" stroke-width="5.42714"/>
<path d="M36 18.6633V25.8995L40.3417 30.2412" stroke="#0688FF" stroke-width="4.70352" stroke-linecap="round" stroke-linejoin="round"/>
</g>
<defs>
<clipPath id="clip0_57_717">
<rect width="72" height="38.7136" fill="white" transform="translate(0 6)"/>
</clipPath>
</defs>
</svg>
